<?xml version="1.0" encoding="UTF-8"?>
<!DOCTYPE svg PUBLIC "-//W3C//DTD SVG 1.1//EN" "http://www.w3.org/Graphics/SVG/1.1/DTD/svg11.dtd">
<!-- Creator: CorelDRAW X7 -->
<svg xmlns="http://www.w3.org/2000/svg" xml:space="preserve" width="1.78333in" height="0.399992in" version="1.1" style="shape-rendering:geometricPrecision; text-rendering:geometricPrecision; image-rendering:optimizeQuality; fill-rule:evenodd; clip-rule:evenodd"
viewBox="0 0 1783 400"
 xmlns:xlink="http://www.w3.org/1999/xlink">
 <defs>
  <style type="text/css">
   <![CDATA[
    .fil4 {fill:#4B4B4D}
    .fil0 {fill:#F58634}
    .fil5 {fill:#EF4D37}
    .fil1 {fill:#263456}
    .fil6 {fill:black}
    .fil7 {fill:#20262E}
    .fil8 {fill:#535353}
    .fil2 {fill:#263456;fill-rule:nonzero}
    .fil3 {fill:#1A2B51;fill-rule:nonzero}
   ]]>
  </style>
 </defs>
 <g id="Layer_x0020_1">
  <metadata id="CorelCorpID_0Corel-Layer"/>
  <g id="_387278544">
   <path class="fil0" d="M951 158l0 2c23,12 28,19 34,32 -53,41 -46,95 24,80l0 -3c-108,-5 67,-113 107,-118l-2 -8c-13,0 -25,1 -40,7 -7,-31 -19,-99 -37,-113 9,91 29,135 -86,121z"/>
   <path class="fil1" d="M1006 213c14,47 -1,100 -34,134l-3 2 -4 3 0 2c19,-2 66,-55 77,-70 37,-55 38,-89 35,-114 -7,2 -44,21 -71,43z"/>
   <path class="fil1" d="M1003 87c15,0 27,13 27,29 0,16 -12,29 -27,29 -16,0 -28,-13 -28,-29 0,-16 12,-29 28,-29z"/>
   <g>
    <path class="fil2" d="M10 166l33 0 43 124 43 -124 33 0 -61 175 -31 0 -60 -175zm186 -7c6,0 11,2 15,6 3,4 5,9 5,15 0,6 -2,10 -5,15 -4,4 -9,6 -14,6 -6,0 -11,-2 -15,-7 -4,-4 -6,-9 -6,-15 0,-5 2,-10 6,-14 4,-4 9,-6 14,-6zm-15 53l31 0 0 129 -31 0 0 -129zm152 -50l31 0 0 179 -31 0 0 -14c-6,6 -12,11 -19,13 -6,3 -12,4 -20,4 -16,0 -30,-6 -42,-19 -11,-13 -17,-29 -17,-48 0,-20 5,-37 17,-49 11,-13 25,-19 41,-19 8,0 15,1 22,4 6,3 12,7 18,13l0 -64zm-33 76c-10,0 -18,4 -24,11 -7,7 -10,16 -10,27 0,11 3,21 10,28 6,7 14,11 24,11 10,0 18,-4 24,-11 7,-7 10,-16 10,-28 0,-11 -3,-20 -10,-27 -6,-7 -14,-11 -24,-11zm82 -26l32 0 32 81 36 -81 32 0 -78 176 -32 0 25 -56 -47 -120zm243 0l31 0 0 129 -31 0 0 -14c-7,6 -13,11 -19,13 -6,3 -13,4 -20,4 -16,0 -30,-6 -42,-19 -12,-13 -18,-29 -18,-48 0,-20 6,-37 18,-49 11,-13 25,-19 41,-19 8,0 15,1 21,4 7,3 13,7 19,13l0 -14zm-33 26c-10,0 -18,4 -25,11 -6,7 -9,16 -9,27 0,11 3,21 10,28 6,7 14,11 24,11 10,0 18,-4 24,-11 7,-7 10,-16 10,-28 0,-11 -3,-20 -10,-27 -6,-7 -15,-11 -24,-11zm88 -26l27 0 0 16c3,-6 7,-11 12,-14 4,-4 10,-5 15,-5 4,0 9,1 13,3l-10 28c-3,-2 -6,-3 -9,-3 -4,0 -8,3 -12,9 -3,7 -5,19 -5,37l0 6 0 52 -31 0 0 -129zm86 -48l32 0 0 48 18 0 0 28 -18 0 0 101 -32 0 0 -101 -16 0 0 -28 16 0 0 -48zm67 -2l32 0 0 63c6,-5 12,-10 18,-12 6,-3 13,-4 19,-4 12,0 23,4 31,13 7,8 11,19 11,34l0 85 -31 0 0 -57c0,-14 -1,-25 -2,-30 -1,-5 -4,-9 -7,-12 -3,-2 -7,-4 -12,-4 -7,0 -12,3 -17,7 -4,4 -7,10 -9,18 -1,4 -1,12 -1,26l0 52 -32 0 0 -179z"/>
    <path class="fil3" d="M1168 166l32 0 39 122 40 -122 31 0 28 175 -31 0 -18 -110 -36 110 -28 0 -36 -110 -18 110 -32 0 29 -175zm205 -7c5,0 10,2 14,6 4,4 6,9 6,15 0,6 -2,10 -6,15 -4,4 -8,6 -14,6 -6,0 -10,-2 -14,-7 -4,-4 -6,-9 -6,-15 0,-5 2,-10 6,-14 4,-4 8,-6 14,-6zm-16 53l31 0 0 129 -31 0 0 -129zm64 -48l31 0 0 48 18 0 0 28 -18 0 0 101 -31 0 0 -101 -16 0 0 -28 16 0 0 -48zm59 48l27 0 0 16c3,-6 7,-11 12,-14 4,-4 10,-5 15,-5 4,0 9,1 13,3l-10 28c-3,-2 -6,-3 -9,-3 -4,0 -9,3 -12,9 -3,7 -5,19 -5,37l0 6 0 52 -31 0 0 -129zm175 0l31 0 0 129 -31 0 0 -14c-6,6 -12,11 -18,13 -7,3 -13,4 -20,4 -17,0 -31,-6 -42,-19 -12,-13 -18,-29 -18,-48 0,-20 6,-37 17,-49 11,-13 25,-19 42,-19 7,0 14,1 21,4 6,3 12,7 18,13l0 -14zm-33 26c-10,0 -18,4 -24,11 -7,7 -10,16 -10,27 0,11 3,21 10,28 7,7 15,11 24,11 10,0 18,-4 25,-11 6,-7 9,-16 9,-28 0,-11 -3,-20 -9,-27 -7,-7 -15,-11 -25,-11z"/>
   </g>
   <path class="fil2" d="M1713 313c0,-4 1,-8 3,-11 2,-4 5,-7 8,-9 4,-2 8,-3 12,-3 4,0 7,1 11,3 3,2 6,5 8,9 2,3 3,7 3,11 0,7 -2,12 -7,17 -4,4 -9,6 -15,6 -7,0 -13,-2 -17,-7 -4,-5 -6,-10 -6,-16zm10 0c0,4 1,7 4,9 2,2 5,3 9,3 3,0 6,-1 8,-3 3,-2 4,-5 4,-9 0,-3 -1,-6 -4,-8 -2,-3 -5,-4 -8,-4 -4,0 -7,1 -9,4 -3,2 -4,5 -4,8zm-9 -29l0 -10 6 0c-2,-1 -4,-2 -5,-4 -1,-2 -2,-4 -2,-6 0,-1 1,-2 1,-4l10 3c-1,2 -1,3 -1,4 0,1 1,3 3,4 2,1 6,2 12,2l2 0 17 0 0 11 -43 0zm0 -62l0 -11 37 0c7,0 12,1 15,4 5,4 7,10 7,19 0,4 0,8 -1,10 -1,3 -3,6 -5,8 -2,2 -4,3 -7,4l0 -12c1,-1 2,-2 3,-4 0,-2 0,-4 0,-6 0,-3 0,-5 -1,-7 -1,-2 -2,-3 -3,-4 -2,-1 -4,-1 -8,-1 2,2 4,4 5,6 0,2 1,4 1,7 0,6 -2,11 -6,15 -4,4 -10,6 -16,6 -7,0 -12,-2 -16,-6 -4,-4 -6,-9 -6,-14 0,-3 1,-5 2,-7 1,-3 2,-5 4,-7l-5 0zm9 11c0,4 1,7 4,9 2,2 5,3 8,3 4,0 6,-1 9,-3 2,-2 3,-5 3,-9 0,-3 -1,-6 -3,-8 -2,-3 -5,-4 -9,-4 -3,0 -6,1 -8,4 -3,2 -4,5 -4,8z"/>
   <path class="fil4" d="M1060 23c0,0 0,-1 -2,-1 -3,-2 -12,-3 -16,-4 -1,0 -1,0 -2,0 0,0 -1,0 -1,0 2,1 19,3 20,6l-6 2 0 0c0,0 0,0 0,0 0,0 -11,4 -13,5 -1,0 -1,0 -2,0 -3,-1 -5,-2 -8,-3 -2,-1 -5,-2 -7,-3l-6 -2c-1,-1 -2,-1 -3,-1 0,0 -8,-3 -8,-4l0 0 25 -5c1,0 3,0 4,0 1,-1 1,-1 2,-1 3,0 2,-1 4,0l23 5c2,0 3,1 4,1l4 1c0,0 0,0 0,0l0 0c0,0 -1,0 -1,0 -1,1 -10,4 -11,4z"/>
   <path class="fil4" d="M1053 25l0 3c0,1 1,3 1,4 -1,2 -2,4 -4,5 0,0 -1,0 -1,0 -7,-4 -15,-5 -22,0 -6,-2 -5,-3 -4,-10l0 -3c2,0 5,2 7,3 3,1 5,1 8,2 1,1 1,0 2,0 2,-1 13,-4 13,-5 0,1 0,1 0,1z"/>
   <path class="fil5" d="M1060 34c0,4 1,7 1,9 0,1 0,1 -1,2 0,0 0,0 -1,0l-1 0c-1,0 -1,0 -2,-1 -1,-1 0,-3 0,-5 1,-2 2,-4 2,-6l2 0c0,1 0,0 0,1 0,0 0,0 0,0z"/>
   <path class="fil5" d="M1060 23c1,1 0,4 0,5 0,1 1,1 1,2 0,1 0,2 -1,2 -1,0 -1,0 -2,0 0,-1 0,-2 1,-3 0,-1 0,-4 0,-5 -1,-3 -18,-5 -20,-6 0,0 1,0 1,0 1,0 1,0 2,0 4,1 13,2 16,4 2,0 2,1 2,1z"/>
   <path class="fil6" d="M1036 18c0,1 -2,1 -3,2 -2,0 -5,1 -7,2 -1,0 -3,1 -3,1 0,0 0,0 1,-1 1,0 1,0 2,0 1,-1 2,-1 3,-2 1,0 7,-2 7,-2z"/>
   <path class="fil7" d="M1060 31c0,0 0,1 0,1 0,1 0,1 0,2 0,0 0,0 0,0 0,-1 0,0 0,-1l-2 0c0,-1 0,-2 0,-3 1,1 1,1 2,1z"/>
   <path class="fil8" d="M1038 19c-1,0 -1,0 -2,-1l1 0c0,-1 1,-1 1,-1l0 2z"/>
   <path class="fil2" d="M1758 336c-1,0 -2,1 -3,2 -1,1 -1,2 -1,3 0,1 0,2 1,3 1,1 2,2 3,2 1,0 2,-1 3,-2 1,-1 2,-2 2,-3 0,-1 -1,-2 -2,-3 -1,-1 -2,-2 -3,-2z"/>
  </g>
 </g>
</svg>
